<svg xmlns="http://www.w3.org/2000/svg" xmlns:xlink="http://www.w3.org/1999/xlink" width="500" zoomAndPan="magnify" viewBox="0 0 375 374.999991" height="500" preserveAspectRatio="xMidYMid meet" version="1.0"><defs><clipPath id="4748dab457"><path d="M 12 18.113281 L 366.683594 18.113281 L 366.683594 363.296875 L 12 363.296875 Z M 12 18.113281 " clip-rule="nonzero"/></clipPath><clipPath id="29e2c23f6d"><path d="M 247.558594 76.046875 L 280.765625 76.046875 L 280.765625 109.257812 L 247.558594 109.257812 Z M 247.558594 76.046875 " clip-rule="nonzero"/></clipPath><clipPath id="7c4bed4a7e"><path d="M 264.160156 76.046875 C 254.992188 76.046875 247.558594 83.480469 247.558594 92.652344 C 247.558594 101.824219 254.992188 109.257812 264.160156 109.257812 C 273.332031 109.257812 280.765625 101.824219 280.765625 92.652344 C 280.765625 83.480469 273.332031 76.046875 264.160156 76.046875 Z M 264.160156 76.046875 " clip-rule="nonzero"/></clipPath><clipPath id="953dc2a626"><path d="M 8.71875 11.886719 L 363.421875 11.886719 L 363.421875 357 L 8.71875 357 Z M 8.71875 11.886719 " clip-rule="nonzero"/></clipPath></defs><path fill="#ffde59" d="M 262.808594 83.386719 C 257.457031 83.386719 253.117188 87.726562 253.117188 93.078125 C 253.117188 98.433594 257.457031 102.773438 262.808594 102.773438 C 268.160156 102.773438 272.5 98.433594 272.5 93.078125 C 272.5 87.726562 268.160156 83.386719 262.808594 83.386719 Z M 262.808594 83.386719 " fill-opacity="1" fill-rule="nonzero"/><path fill="#ffde59" d="M 235.71875 216.445312 C 222.003906 207.304688 204.085938 202.269531 185.269531 202.269531 L 184.574219 202.269531 C 153.714844 202.472656 126.613281 216.144531 115.53125 237.109375 C 113.4375 241.082031 113.019531 245.8125 114.394531 250.113281 C 115.371094 253.140625 117.207031 255.832031 119.617188 257.855469 C 117.203125 259.882812 115.367188 262.578125 114.390625 265.613281 C 113.019531 269.890625 113.4375 274.621094 115.535156 278.605469 C 126.613281 299.566406 153.714844 313.238281 184.621094 313.445312 L 185.269531 313.445312 C 204.082031 313.445312 222 308.40625 235.71875 299.257812 C 251.53125 288.722656 260.242188 274.015625 260.242188 257.855469 C 260.242188 241.691406 251.53125 226.984375 235.71875 216.445312 Z M 227.816406 287.402344 C 216.410156 295.003906 201.296875 299.191406 185.269531 299.191406 L 184.667969 299.191406 C 158.984375 299.023438 136.792969 288.328125 128.136719 271.957031 C 127.816406 271.34375 127.75 270.617188 127.957031 269.96875 C 128.171875 269.300781 128.636719 268.761719 129.265625 268.445312 L 137.703125 264.230469 C 140.117188 263.023438 141.644531 260.554688 141.644531 257.859375 C 141.644531 255.160156 140.121094 252.691406 137.707031 251.484375 L 129.253906 247.253906 C 128.640625 246.949219 128.167969 246.394531 127.960938 245.753906 C 127.75 245.09375 127.816406 244.363281 128.132812 243.757812 C 136.792969 227.378906 158.984375 216.6875 184.621094 216.519531 L 185.269531 216.519531 C 201.304688 216.519531 216.414062 220.703125 227.816406 228.304688 C 239.535156 236.113281 245.992188 246.609375 245.992188 257.855469 C 245.992188 269.097656 239.535156 279.589844 227.816406 287.402344 Z M 227.816406 287.402344 " fill-opacity="1" fill-rule="nonzero"/><g clip-path="url(#4748dab457)"><path fill="#ffde59" d="M 310.707031 148.671875 C 341.359375 148.671875 366.296875 123.734375 366.296875 93.082031 C 366.296875 83.808594 358.75 76.265625 349.476562 76.265625 L 314.148438 76.265625 C 309.4375 61.96875 300.9375 49.066406 289.4375 39.015625 C 274.019531 25.535156 254.238281 18.109375 233.730469 18.109375 C 214.230469 18.109375 195.183594 24.929688 180.101562 37.308594 C 161.023438 52.960938 149.71875 76.027344 149.09375 100.574219 C 149.074219 101.320312 149.066406 102.0625 149.066406 102.773438 C 149.066406 124.128906 157.269531 144.703125 171.800781 160.316406 C 164.824219 165.695312 153.179688 171.238281 139.429688 171.238281 C 121.992188 171.238281 103.847656 161.269531 89.265625 153.257812 C 75.871094 145.898438 65.292969 140.085938 54.289062 140.085938 C 30.027344 140.085938 12.285156 171.050781 12.105469 213.710938 C 12.015625 235.328125 16.835938 276.84375 50.113281 311.996094 C 65.050781 327.765625 83.882812 340.09375 106.078125 348.640625 C 128.703125 357.363281 155.0625 362.199219 184.398438 363.015625 C 186.421875 363.078125 188.414062 363.109375 190.390625 363.109375 C 252.5625 363.109375 290.628906 332.191406 304.367188 318.570312 C 327.726562 295.40625 340.074219 266.632812 340.074219 235.355469 L 340.074219 235.074219 C 340.089844 221.542969 338.050781 208.371094 334.019531 195.929688 C 328.085938 177.589844 318.246094 161.769531 304.726562 148.824219 C 304.761719 148.773438 304.792969 148.722656 304.824219 148.671875 Z M 349.476562 90.515625 C 350.894531 90.515625 352.042969 91.667969 352.042969 93.082031 C 352.042969 115.355469 334.335938 133.558594 312.261719 134.378906 C 316.332031 124.351562 318.398438 113.742188 318.398438 102.773438 C 318.398438 98.6875 318.105469 94.609375 317.53125 90.6875 C 317.523438 90.628906 317.511719 90.570312 317.503906 90.515625 Z M 320.460938 200.320312 C 324.03125 211.339844 325.835938 223.027344 325.824219 235.066406 L 325.824219 235.355469 C 325.824219 262.75 314.933594 288.023438 294.332031 308.449219 C 281.867188 320.8125 247.292969 348.859375 190.363281 348.859375 C 188.539062 348.859375 186.6875 348.828125 184.820312 348.769531 C 157.082031 348 132.3125 343.480469 111.199219 335.34375 C 91 327.5625 73.925781 316.410156 60.460938 302.195312 C 30.597656 270.65625 26.273438 233.257812 26.355469 213.773438 C 26.492188 181 39.023438 154.335938 54.289062 154.335938 C 61.636719 154.335938 70.800781 159.371094 82.40625 165.746094 C 98.414062 174.542969 118.335938 185.488281 139.429688 185.488281 C 160.578125 185.488281 179.179688 174.878906 187.511719 165.019531 C 190 162.074219 189.695312 157.683594 186.824219 155.113281 C 171.886719 141.726562 163.316406 122.648438 163.316406 102.773438 C 163.316406 102.195312 163.320312 101.589844 163.339844 100.960938 C 163.859375 80.535156 173.265625 61.351562 189.144531 48.324219 C 201.683594 38.027344 217.519531 32.359375 233.730469 32.359375 C 250.785156 32.359375 267.238281 38.535156 280.058594 49.746094 C 292.753906 60.839844 301.050781 76.09375 303.425781 92.722656 C 303.90625 95.992188 304.148438 99.375 304.148438 102.773438 C 304.148438 113.335938 301.851562 123.488281 297.328125 132.957031 C 295.203125 137.402344 292.609375 141.632812 289.617188 145.527344 C 287.304688 148.53125 287.753906 152.820312 290.636719 155.285156 C 304.628906 167.246094 314.664062 182.398438 320.460938 200.320312 Z M 320.460938 200.320312 " fill-opacity="1" fill-rule="nonzero"/></g><g clip-path="url(#29e2c23f6d)"><g clip-path="url(#7c4bed4a7e)"><path fill="#ffde59" d="M 247.558594 76.046875 L 280.765625 76.046875 L 280.765625 109.257812 L 247.558594 109.257812 Z M 247.558594 76.046875 " fill-opacity="1" fill-rule="nonzero"/></g></g><path fill="#ffde59" d="M 259.546875 77.160156 C 254.195312 77.160156 249.855469 81.5 249.855469 86.851562 C 249.855469 92.207031 254.195312 96.546875 259.546875 96.546875 C 264.902344 96.546875 269.242188 92.207031 269.242188 86.851562 C 269.242188 81.5 264.902344 77.160156 259.546875 77.160156 Z M 259.546875 77.160156 " fill-opacity="1" fill-rule="nonzero"/><path fill="#ffde59" d="M 232.457031 210.21875 C 218.746094 201.078125 200.828125 196.042969 182.007812 196.042969 L 181.3125 196.042969 C 150.453125 196.246094 123.351562 209.917969 112.269531 230.882812 C 110.175781 234.855469 109.761719 239.585938 111.132812 243.886719 C 112.109375 246.914062 113.945312 249.605469 116.355469 251.628906 C 113.941406 253.65625 112.105469 256.351562 111.128906 259.386719 C 109.757812 263.664062 110.175781 268.394531 112.273438 272.378906 C 123.355469 293.335938 150.453125 307.011719 181.363281 307.214844 L 182.007812 307.214844 C 200.820312 307.214844 218.738281 302.179688 232.457031 293.03125 C 248.273438 282.496094 256.980469 267.789062 256.980469 251.628906 C 256.980469 235.464844 248.273438 220.757812 232.457031 210.21875 Z M 224.554688 281.175781 C 213.148438 288.777344 198.039062 292.964844 182.007812 292.964844 L 181.410156 292.964844 C 155.722656 292.796875 133.53125 282.101562 124.878906 265.730469 C 124.554688 265.117188 124.488281 264.390625 124.695312 263.742188 C 124.910156 263.074219 125.375 262.53125 126.003906 262.21875 L 134.441406 258.003906 C 136.855469 256.796875 138.382812 254.328125 138.382812 251.628906 C 138.382812 248.933594 136.859375 246.464844 134.445312 245.257812 L 125.992188 241.027344 C 125.378906 240.722656 124.90625 240.167969 124.699219 239.527344 C 124.488281 238.867188 124.554688 238.136719 124.871094 237.53125 C 133.53125 221.152344 155.722656 210.460938 181.363281 210.292969 L 182.007812 210.292969 C 198.046875 210.292969 213.15625 214.476562 224.554688 222.078125 C 236.277344 229.886719 242.730469 240.382812 242.730469 251.628906 C 242.730469 262.871094 236.277344 273.363281 224.554688 281.175781 Z M 224.554688 281.175781 " fill-opacity="1" fill-rule="nonzero"/><g clip-path="url(#953dc2a626)"><path fill="#ffde59" d="M 307.445312 142.445312 C 338.097656 142.445312 363.035156 117.507812 363.035156 86.855469 C 363.035156 77.582031 355.488281 70.039062 346.214844 70.039062 L 310.886719 70.039062 C 306.175781 55.738281 297.679688 42.839844 286.175781 32.789062 C 270.761719 19.308594 250.976562 11.882812 230.46875 11.882812 C 210.96875 11.882812 191.925781 18.699219 176.84375 31.082031 C 157.761719 46.734375 146.460938 69.800781 145.832031 94.347656 C 145.8125 95.09375 145.804688 95.835938 145.804688 96.546875 C 145.804688 117.902344 154.007812 138.476562 168.539062 154.089844 C 161.5625 159.46875 149.917969 165.011719 136.167969 165.011719 C 118.734375 165.011719 100.585938 155.042969 86.003906 147.03125 C 72.609375 139.671875 62.03125 133.859375 51.027344 133.859375 C 26.765625 133.859375 9.023438 164.824219 8.84375 207.484375 C 8.753906 229.101562 13.574219 270.617188 46.851562 305.765625 C 61.792969 321.539062 80.621094 333.867188 102.816406 342.414062 C 125.441406 351.136719 151.800781 355.972656 181.136719 356.789062 C 183.164062 356.851562 185.15625 356.882812 187.132812 356.882812 C 249.304688 356.882812 287.367188 325.964844 301.105469 312.34375 C 324.46875 289.179688 336.816406 260.40625 336.816406 229.128906 L 336.816406 228.847656 C 336.828125 215.316406 334.789062 202.144531 330.757812 189.703125 C 324.824219 171.363281 314.984375 155.542969 301.46875 142.597656 C 301.5 142.546875 301.53125 142.496094 301.5625 142.445312 Z M 346.214844 84.289062 C 347.632812 84.289062 348.785156 85.441406 348.785156 86.855469 C 348.785156 109.128906 331.078125 127.332031 309.003906 128.152344 C 313.070312 118.125 315.136719 107.515625 315.136719 96.546875 C 315.136719 92.457031 314.84375 88.382812 314.269531 84.460938 C 314.261719 84.402344 314.25 84.34375 314.242188 84.289062 Z M 317.199219 194.09375 C 320.773438 205.113281 322.578125 216.800781 322.566406 228.839844 L 322.566406 229.128906 C 322.566406 256.519531 311.675781 281.796875 291.070312 302.222656 C 278.605469 314.585938 244.03125 342.632812 187.101562 342.632812 C 185.28125 342.632812 183.425781 342.601562 181.558594 342.542969 C 153.820312 341.773438 129.050781 337.253906 107.9375 329.117188 C 87.738281 321.335938 70.664062 310.183594 57.199219 295.96875 C 27.339844 264.429688 23.011719 227.03125 23.09375 207.542969 C 23.230469 174.773438 35.765625 148.109375 51.027344 148.109375 C 58.375 148.109375 67.539062 153.144531 79.144531 159.519531 C 95.152344 168.316406 115.078125 179.261719 136.167969 179.261719 C 157.320312 179.261719 175.917969 168.652344 184.25 158.792969 C 186.738281 155.847656 186.433594 151.457031 183.5625 148.886719 C 168.625 135.5 160.054688 116.421875 160.054688 96.546875 C 160.054688 95.96875 160.0625 95.363281 160.078125 94.734375 C 160.597656 74.308594 170.003906 55.121094 185.882812 42.097656 C 198.421875 31.800781 214.257812 26.132812 230.46875 26.132812 C 247.527344 26.132812 263.976562 32.308594 276.796875 43.519531 C 289.492188 54.613281 297.792969 69.867188 300.164062 86.496094 C 300.644531 89.765625 300.886719 93.148438 300.886719 96.546875 C 300.886719 107.109375 298.59375 117.261719 294.066406 126.730469 C 291.941406 131.175781 289.347656 135.402344 286.355469 139.300781 C 284.046875 142.304688 284.492188 146.59375 287.375 149.058594 C 301.367188 161.019531 311.402344 176.171875 317.199219 194.09375 Z M 317.199219 194.09375 " fill-opacity="1" fill-rule="nonzero"/></g></svg>